# xmcd CD database file
#
# Track frame offsets:
#	150
#	26337
#	50290
#	66370
#	86859
#	114664
#	139446
#	162989
#	187848
#	209167
#	231768
#	259807
#	280368
#	300587
#
# Disc length: 4308 seconds
#
# Revision: 0
# Processed by: cddbd v1.5.2PL0 Copyright (c) Steve Scherf et al.
# Submitted via: CDex 1.51
#
DISCID=d010d20e
DTITLE=JAFROSAX - JAFROSAX BEST
DYEAR=2008
DGENRE=Jazz
TTITLE0=Drawn 2 U(feat.Yukimi Nagano)
TTITLE1=Tapestry
TTITLE2=Float In Afternoon
TTITLE3=Just In Time
TTITLE4=Find A Way
TTITLE5=Easy That Would Be
TTITLE6=Going to the sky(feat.LISA)
TTITLE7=Speak your Tongue
TTITLE8=Limit of the sky
TTITLE9=GROW
TTITLE10=Wait and See(feat.Yukimi Nagano)
TTITLE11=Sweet music
TTITLE12=Fleeting Inspiration
TTITLE13=Rollin'(feat.Nokko)
EXTD=YEAR: 2008
EXTT0=
EXTT1=
EXTT2=
EXTT3=
EXTT4=
EXTT5=
EXTT6=
EXTT7=
EXTT8=
EXTT9=
EXTT10=
EXTT11=
EXTT12=
EXTT13=
PLAYORDER=
